<svg xmlns="http://www.w3.org/2000/svg" enable-background="new 0 0 64 64" viewBox="0 0 64 64" id="growth"><rect width="7.1" height="14.9" x="3.2" y="43.4" fill="#34afaa"></rect><polygon fill="#fcd66f" points="19.4 33.6 22.9 36 22.9 58.3 15.7 58.3 15.7 36.9"></polygon><polygon fill="#f7747e" points="31.9 42 35.3 39 35.3 58.3 28.2 58.3 28.2 39.6"></polygon><polygon fill="#5dafd8" points="47.8 30.1 47.8 58.3 40.7 58.3 40.7 34.5 45 30.8 45.5 30.1"></polygon><polygon fill="#445c6c" points="57.7 11.4 60.4 13.2 60.4 58.3 53.3 58.3 53.3 18.1"></polygon><polygon fill="#e95c60" points="60.8 10.6 59.4 4.1 52.9 5.5 56 7.5 43.5 26.6 31.7 36.7 19.2 28.3 6.1 39.9 7.5 41.4 19.4 30.8 31.8 39.2 45 27.9 57.7 8.6"></polygon><rect width="64" height="3" y="56.9" fill="#58717f"></rect></svg>