<svg xmlns="http://www.w3.org/2000/svg" version="1.1" xmlns:xlink="http://www.w3.org/1999/xlink" xmlns:svgjs="http://svgjs.dev/svgjs" width="2000" height="2242" viewBox="0 0 2000 2242"><g transform="matrix(1,0,0,1,-3.1151183800621993,0)"><svg viewBox="0 0 321 360" data-background-color="#ffffff" preserveAspectRatio="xMidYMid meet" height="2242" width="2000" xmlns="http://www.w3.org/2000/svg" xmlns:xlink="http://www.w3.org/1999/xlink"><g id="tight-bounds" transform="matrix(1,0,0,1,0.5000234999999975,0)"><svg viewBox="0 0 320 360" height="360" width="320"><g><svg></svg></g><g><svg viewBox="0 0 320 360" height="360" width="320"><g><path transform="translate(-74.99272,-51.79039) scale(4.65793,4.65793)" d="M20.6 59.9l0.8 1-0.4-1.3c-0.1-0.6-0.8 0.1-0.4 0.3M21.5 59.3c0.3 0.5 0.6 1 0.6 1.5 0 0.7 0.6 1 1.1 1.2-0.7-0.8-1.1-3-1.7-2.7M59.9 16.9c1.7 0 3.3-0.2 5.1 0.2 4.4 1.1 8.1 3.3 10.6 6.4l7 11.2c0.3 2.8 0.9 5.9 0.8 9.3 0.7 0 0.6-1 1.4-1.2-0.8 2-1.2 4.5-1.4 7.4-0.5-1.6 0-4 0.1-5.3-0.7 1.1-1.1 0.3-1.1-0.2 0.1-0.8-0.3-0.7-0.6-1-1.1-1-1.8-2.1-2.6-3.8 0.5-1.3 0.6-3.2-1-4.2-0.5-0.3-1.1-0.8-1.4-1.6-0.4-1.1-1.1-2.4-0.9-4.1 0.1-0.5-1.5 1.1-2.4 0.4-3.9-2.7-7.8-5.8-12.5-8.4-2.5 0-4.3-0.9-5.2-2-0.8-1-0.2-2.3 1-2.4 0.7 0 1.5-0.2 2.1 0.2 0.1-0.4 0.5-0.9 1-0.9M50 14.6l0.2 0.1c1 0.2 1.5 1.6 2.6 1.1 0 0.7 0.1 1.4-0.1 1.9-0.3 0.8-1.2 0.8-1.9 0.8-6.7-0.4-10.6 2.4-14.7 4.8-1.1 0.7-2.3 1.2-3.2 2.1-4.3 4-9 7.7-10.1 15.1l-0.9 8.2c-0.1 0.9-1.1 1.8-0.9 2.9l0.7 4.9c-0.7-0.7-1.1 0.2-0.9 0.6 0.1 0.3 0.5 1.3 1.1 0.4 0.8 1.5 1.6 4.4 2.7 5.7 3.4 4 7.8 7.6 11.4 11.2 0.9-0.2 1.6-0.2 1.8-0.8 0.3 0.6-0.3 1.2-0.8 1.3 1.6 1 3.4 1.9 5.8 2.1 3.1 0.2 6 0.7 8.7 1.4 1.4-0.4 2.8-0.6 4.3-0.7 0.5 0 0.8-0.8 1.4-1l0.1-1c0.6 0.9 0.5-0.3 0.1-0.9 0.7 0.6 0.9 1.1 1.2 1.5 0-0.3 0.8-1.4 0.8-0.1l0.2-1.3c0.3-0.2 0.4 1.1 0.7 0.2 0.3-0.9 0.9-0.2 1.5-0.5-0.2 0.4-0.1 1.2 0.6 0.7l0.8-0.7c0.5 1.2 1.3 0.7 1.7 0.5 4.4-2.8 8.8-6.1 13-9.4l-0.1 1.3 0.5-1.6c0.5 0.5 0.9 0.1 1.1-0.2 0.6-1 1.4-2 2.7-2.9-1.6 4.3-3.5 7.7-5.9 10.5l-1 1.2c0 0.7-0.2 1.6-1 1.7-0.4 0.1-1.2-0.2-1.8 0.4-0.3 0.4 0.7 1.2-0.1 0.6-0.7-0.5-1.4 0-2.2 0.2-0.6 0.2 0.4 0.8 0.6 1.2 0.2 0.4 0.4 0.8 0.3 1.3l-1.1-1.2c-1.3 0.7-2.1 2-3.2 3-0.5 0.4-0.3 1.1-0.3 1.7-0.7 0-1.5-0.2-1.9 0.2-0.3 0.4-0.2 1-0.2 1.6-1-0.1-1.1-1.6-2-1.3-0.9 0.2-1.9 0.3-2.7 0.8 0.6 1.2-1 0.5-0.8 0.7-1.5-0.9-2.8-1.6-4.4-1-3.4-1.1-7.6-0.6-10.7-0.2 0-0.5 0.1-1-0.1-1.1-0.2 0.5-0.8 0.3-0.7 0.3-1.9-1.3-3.8-2.1-5.8-3.2-1.8 0.2-3.5-0.7-4-1.2-1.4-1.3-3-0.6-4.3-0.9-2.8-0.7-3.8-3.6-4.1-5.6-0.2-1-1-1.4-1.3-1.3-1.3-4.2-3.3-8-4.9-11.9-0.4-1-0.3-2-0.3-3.1 0.5 0.2 1 0.1 0.9-0.6-0.5-3.3-1.7-5.8-3-8.2 0.7-3.4 0.8-7.4 2.4-10.4 1.4-2.7 4-4.1 5.8-6.4 0.6-0.8 0.6-1.9 1.2-2.6 2-2 4-4.1 6.2-5.9 1-0.8 2.2 0 3.7-0.3 0.5-1.8 2.5-3.4 4.4-2.9 0.8 0.2 2.4-1.9 2.9-2.1 0.8-0.3 0.4 0.8 0.4 1.5 1.9-1.5 4.5-2.3 6.9-3.2" fill="#4b91f1" fill-rule="nonzero" stroke="none" stroke-width="1" stroke-linecap="butt" stroke-linejoin="miter" stroke-miterlimit="10" stroke-dasharray="" stroke-dashoffset="0" font-family="none" font-weight="none" font-size="none" text-anchor="none" style="mix-blend-mode: normal" data-fill-palette-color="tertiary"></path></g><g transform="matrix(1,0,0,1,64,157.72885516094732)"><svg viewBox="0 0 192 44.54228967810536" height="44.54228967810536" width="192"><g><svg viewBox="0 0 192 44.54228967810536" height="44.54228967810536" width="192"><g><svg viewBox="0 0 192 44.54228967810536" height="44.54228967810536" width="192"><g transform="matrix(1,0,0,1,0,26.922183346544223)"><svg viewBox="0 0 192 17.62010633156114" height="17.62010633156114" width="192"><g id="textblocktransform"><svg viewBox="0 0 192 17.62010633156114" height="17.62010633156114" width="192" id="textblock"><g><svg viewBox="0 0 192 17.62010633156114" height="17.62010633156114" width="192"><g transform="matrix(1,0,0,1,0,0)"><svg width="192" viewBox="0.56 -36.43 404.07 37.09" height="17.62010633156114" data-palette-color="#4b91f1"><path d="M8.37-33.89L9.16-33.89Q13.55-33.89 13.55-32.32L13.55-32.32Q13.55-31.64 13.09-30.8 12.62-29.96 12.62-28.86 12.62-27.76 13.43-25.29L13.43-25.29Q16.8-15.01 18.12-11.82 19.43-8.62 19.68-8.62L19.68-8.62Q20.39-8.62 24.56-21.51L24.56-21.51Q26.17-26.49 26.17-29.05L26.17-29.05Q26.17-29.66 25.45-30.91 24.73-32.15 24.73-32.47L24.73-32.47Q24.73-33.28 25.62-33.58 26.51-33.89 29.2-33.89L29.2-33.89 30.91-33.89Q33.67-33.89 34.46-33.46 35.25-33.03 35.25-32.28 35.25-31.52 33.67-30.27 32.08-29.03 31.32-27.47L31.32-27.47Q31.18-27.17 26.79-15.3 22.41-3.42 21.23-1.49 20.04 0.44 17.41 0.44L17.41 0.44Q15.89 0.44 14.48-2.78L14.48-2.78Q13.67-4.59 9.55-15.33L9.55-15.33 7.13-21.66Q6.52-23.24 5.76-25.28 5-27.32 4.69-28.03L4.69-28.03Q4.08-29.35 2.32-30.38 0.56-31.42 0.56-32.36 0.56-33.3 0.95-33.5L0.95-33.5Q1.71-33.89 8.37-33.89L8.37-33.89ZM40.16-31.03L40.16-31.67Q40.16-33.08 41.27-34.06 42.38-35.03 43.67-35.03L43.67-35.03 44.46-35.03Q44.82-34.96 45.07-34.96L45.07-34.96Q46.24-34.96 47.14-33.91 48.04-32.86 48.04-31.91L48.04-31.91 48.04-31.27Q48-31.03 48-30.91L48-30.91Q48-29.88 46.85-28.91 45.7-27.93 44.31-27.93L44.31-27.93 43.55-27.93Q42.19-27.93 41.2-28.8 40.21-29.66 40.21-30.79L40.21-30.79 40.16-31.03ZM44.8 0.1L44.8 0.1 42.48 0.1Q39.23 0.1 38.58-0.09 37.94-0.27 37.94-1.14 37.94-2 39.16-3.22 40.38-4.44 40.7-5.68 41.01-6.91 41.01-12.1 41.01-17.29 40.74-18.21 40.48-19.14 39.07-19.81 37.67-20.48 37.67-21.42 37.67-22.36 38.96-22.8L38.96-22.8Q41.89-23.78 45.43-23.78L45.43-23.78 45.8-23.78Q47.21-23.78 47.43-22.58L47.43-22.58Q47.56-21.9 47.56-14.39 47.56-6.88 47.89-5.6 48.22-4.32 49.58-2.88 50.95-1.44 50.95-1.07L50.95-1.07 50.95-0.78Q50.95 0.1 44.8 0.1ZM82.56-1.71L82.56-1.71Q82.56-0.81 81.09-0.38 79.61 0.05 76.13 0.05 72.65 0.05 71.97-0.44 71.28-0.93 71.28-1.6 71.28-2.27 71.91-3.64 72.53-5 72.68-5.83 72.82-6.67 72.82-11.45 72.82-16.24 72-17.98 71.19-19.73 68.79-19.73 66.4-19.73 64.91-17.65L64.91-17.65Q63.91-16.26 63.91-12.55L63.91-12.55Q63.91-6.42 65.03-3.56L65.03-3.56Q65.72-1.9 65.72-1.42L65.72-1.42Q65.72-0.49 64.59-0.26 63.47-0.02 59.72-0.02 55.98-0.02 55.2-0.52 54.41-1.03 54.41-1.88 54.41-2.73 55.71-3.59 57-4.44 57.17-5.14 57.34-5.83 57.34-11.34 57.34-16.85 56.98-17.79 56.61-18.73 55.51-19.97 54.41-21.22 54.41-21.24L54.41-21.24 54.41-21.75Q54.41-22.17 55.02-22.51L55.02-22.51Q57.15-23.73 61.35-23.73L61.35-23.73Q62.52-23.73 63.31-22.58 64.11-21.44 64.47-21.44 64.84-21.44 66.19-22.23 67.55-23.02 67.67-23.07L67.67-23.07Q69.62-23.97 71.31-23.97L71.31-23.97 72.09-23.97Q76.36-23.97 78.19-20.56L78.19-20.56Q79.37-18.33 79.37-9.89L79.37-9.89Q79.37-5.37 79.66-4.74 79.95-4.1 81.26-3.28 82.56-2.47 82.56-1.71ZM97.48-20.92L97.48-20.92 97.01-20.92Q94.91-20.92 93.58-18.55 92.25-16.19 92.25-12.89L92.25-12.89 92.25-11.52Q92.25-7.81 93.79-5.25 95.33-2.69 97.48-2.69L97.48-2.69 97.94-2.69Q99.82-2.69 101.23-4.6 102.63-6.52 102.63-9.72L102.63-9.72 102.68-10.23 102.7-11.25 102.7-11.52 102.68-11.79 102.68-12.3Q102.63-12.84 102.63-13.09L102.63-13.09Q102.63-16.33 101.09-18.63 99.55-20.92 97.48-20.92ZM97.5-24.17L97.5-24.17 98.72-24.17Q100.9-24.17 103.19-23.14L103.19-23.14Q107.56-21.19 109.2-16.8L109.2-16.8Q110.03-14.53 110.03-12.16L110.03-12.16 110.03-11.72Q110.03-9.18 109-6.74 107.98-4.3 106.24-2.69L106.24-2.69Q102.63 0.59 97.94 0.59L97.94 0.59Q97.58 0.59 97.21 0.56L97.21 0.56Q94.87 0.56 92.61-0.38 90.35-1.32 88.91-2.88L88.91-2.88Q85.81-6.3 85.81-11.45L85.81-11.45 85.81-11.87 85.83-12.28Q85.86-14.55 86.69-16.77L86.69-16.77Q88.3-21.02 92.6-23.05L92.6-23.05Q95.01-24.17 97.5-24.17ZM134.76-23.46L134.76-23.46Q139.54-23.46 139.57-22.07L139.57-22.07Q139.57-21.26 136.51-19.43L136.51-19.43Q130.41-15.75 130.41-13.45L130.41-13.45Q130.41-12.62 135.39-6.93L135.39-6.93Q137.12-4.96 139.19-3.39 141.25-1.83 141.25-1.21 141.25-0.59 140.65-0.28 140.05 0.02 136.27 0.02L136.27 0.02 135.32 0.02Q131.66 0.02 130.46-1.17L130.46-1.17Q129.75-1.88 129.42-3.63 129.09-5.37 128.31-6.59L128.31-6.59Q126.53-9.4 124.92-9.4L124.92-9.4Q123.92-9.4 123.92-7.03 123.92-4.66 124.92-2.71L124.92-2.71Q125.36-1.86 125.36-1.66L125.36-1.66Q125.36-0.59 123.74-0.2L123.74-0.2Q122.91 0 119.83 0 116.74 0 115.79-0.24L115.79-0.24Q114.37-0.61 114.37-1.51L114.37-1.51Q114.37-2.03 115.31-3.58 116.25-5.13 116.4-5.96L116.4-5.96Q116.76-8.06 116.76-19.12 116.76-30.18 116.47-30.94 116.18-31.71 114.75-32.47 113.32-33.23 113.32-34.14 113.32-35.06 114.64-35.52L114.64-35.52Q117.15-36.43 120.16-36.43L120.16-36.43 121.01-36.43Q122.55-36.43 122.99-34.64L122.99-34.64Q123.31-33.37 123.31-25.04 123.31-16.7 123.38-16.16L123.38-16.16Q123.6-14.45 124.4-14.45L124.4-14.45Q125.5-14.45 128.19-17.43L128.19-17.43Q129.85-19.26 129.85-20.56L129.85-20.56 129.51-22.02Q129.51-22.85 130.52-23.16 131.53-23.46 134.76-23.46ZM155.48-20.92L155.48-20.92 155.02-20.92Q152.92-20.92 151.59-18.55 150.26-16.19 150.26-12.89L150.26-12.89 150.26-11.52Q150.26-7.81 151.79-5.25 153.33-2.69 155.48-2.69L155.48-2.69 155.94-2.69Q157.82-2.69 159.23-4.6 160.63-6.52 160.63-9.72L160.63-9.72 160.68-10.23 160.71-11.25 160.71-11.52 160.68-11.79 160.68-12.3Q160.63-12.84 160.63-13.09L160.63-13.09Q160.63-16.33 159.09-18.63 157.56-20.92 155.48-20.92ZM155.51-24.17L155.51-24.17 156.73-24.17Q158.9-24.17 161.19-23.14L161.19-23.14Q165.56-21.19 167.2-16.8L167.2-16.8Q168.03-14.53 168.03-12.16L168.03-12.16 168.03-11.72Q168.03-9.18 167-6.74 165.98-4.3 164.25-2.69L164.25-2.69Q160.63 0.59 155.94 0.59L155.94 0.59Q155.58 0.59 155.21 0.56L155.21 0.56Q152.87 0.56 150.61-0.38 148.35-1.32 146.91-2.88L146.91-2.88Q143.81-6.3 143.81-11.45L143.81-11.45 143.81-11.87 143.84-12.28Q143.86-14.55 144.69-16.77L144.69-16.77Q146.3-21.02 150.6-23.05L150.6-23.05Q153.01-24.17 155.51-24.17ZM187.88-22.39L187.88-22.39Q187.88-23.54 193.39-23.54L193.39-23.54Q196.79-23.54 196.79-22.14L196.79-22.14Q196.79-21.22 195.35-19.91 193.91-18.6 193.17-17.14L193.17-17.14Q193.15-17.09 190.02-9.47L190.02-9.47Q186.9-1.9 186.07-0.73 185.24 0.44 183.58 0.44 181.92 0.44 181.02-0.88 180.11-2.2 177.23-9.33 174.35-16.46 173.69-17.7 173.03-18.95 171.51-20.23 169.98-21.51 169.98-22.14L169.98-22.14 169.98-22.61Q169.98-23.54 176.47-23.54L176.47-23.54 177.67-23.56Q180.21-23.56 180.84-23.24 181.48-22.92 181.48-22.23 181.48-21.53 181.11-20.89 180.75-20.24 180.75-19.38L180.75-19.38Q180.75-16.26 183.99-8.96L183.99-8.96Q184.68-7.45 184.95-7.45 185.21-7.45 185.87-9.01L185.87-9.01Q188.9-16.19 188.9-18.92L188.9-18.92Q188.9-19.68 188.39-20.7 187.88-21.73 187.88-22.39ZM220.27-30.08L220.27-30.08Q218.24-30.08 216-28.22L216-28.22Q212.41-25.24 212.21-25.24L212.21-25.24Q210.94-25.24 210.94-26.83L210.94-26.83 210.94-27.59Q210.94-30.22 211.38-32.35L211.38-32.35Q211.6-33.45 212.37-33.67 213.14-33.89 227.06-33.89L227.06-33.89 236.21-33.94 237.82-33.94Q240.46-33.94 240.96-33.08 241.46-32.23 241.46-29.35L241.46-29.35 241.46-27.78Q241.46-25.2 240.26-25.2L240.26-25.2Q239.21-25.2 237.72-26.88 236.23-28.56 234.99-29.31 233.74-30.05 231.72-30.05L231.72-30.05Q230.11-30.05 229.84-27.93L229.84-27.93Q229.74-27.2 229.74-17.03 229.74-6.86 230.01-5.76 230.28-4.66 232.01-3.41 233.74-2.15 233.74-1.28 233.74-0.42 232.87-0.2 231.99 0.02 227.18 0.02L227.18 0.02 223.08 0.02Q220.66 0.02 219.77-0.15 218.88-0.32 218.88-1.12 218.88-1.93 220.54-3.42 222.2-4.91 222.49-6.02 222.78-7.13 222.78-17.09 222.78-27.05 222.59-28.06 222.39-29.08 221.92-29.58 221.44-30.08 220.27-30.08ZM252.44-20.83L252.44-20.83 251.74-20.83Q250.2-20.83 248.79-19.23 247.39-17.63 247.39-15.41L247.39-15.41 247.39-15.01Q247.39-14.11 248.39-14.11L248.39-14.11 248.63-14.06 250.37-14.06 250.49-14.09 254.57-14.33Q254.93-14.4 255.06-14.4L255.06-14.4Q256.3-14.4 256.3-15.7L256.3-15.7 256.3-16.5Q256.3-18.14 255.13-19.48 253.96-20.83 252.44-20.83ZM247.68-9.2L247.68-9.2Q247.68-6.76 249.98-4.98L249.98-4.98Q251.69-3.64 254.32-3.64L254.32-3.64Q255.52-3.64 257.88-4.32 260.23-5 260.6-5L260.6-5Q261.7-5 261.7-3.81L261.7-3.81Q261.7-2.39 258.78-0.94 255.86 0.51 252.74 0.51L252.74 0.51 251.66 0.51Q251.61 0.51 251.54 0.51L251.54 0.51Q249.56 0.51 247.51-0.29L247.51-0.29Q243.46-1.86 241.75-5.76L241.75-5.76Q240.58-8.45 240.58-10.86L240.58-10.86 240.58-11.99Q240.58-14.45 241.43-16.75L241.43-16.75Q243.04-21.07 247.12-22.97L247.12-22.97Q249.56-24.1 252.25-24.1L252.25-24.1 252.81-24.1Q256.79-24.1 259.52-21.63L259.52-21.63Q260.96-20.31 261.73-18.46 262.5-16.6 262.5-14.69 262.5-12.77 260.62-12.16L260.62-12.16Q257.99-11.3 250.86-11.3L250.86-11.3Q248.95-11.3 248.32-10.83 247.68-10.35 247.68-9.2ZM286.16-5.2L286.16-5.2Q287.11-5.2 287.11-3.89 287.11-2.59 284.03-1.05 280.96 0.49 278.03 0.49L278.03 0.49 277.47 0.49Q275.05 0.49 272.88-0.46L272.88-0.46Q268.63-2.32 267.02-6.79L267.02-6.79Q266.23-8.98 266.23-11.16L266.23-11.16 266.23-11.74Q266.23-16.67 269.48-20.29L269.48-20.29Q271.12-22.09 273.45-23.06 275.78-24.02 278.25-24.02L278.25-24.02Q282.89-24.02 285.4-22.63L285.4-22.63Q286.89-21.8 286.89-19.92L286.89-19.92Q286.89-16.53 284.74-16.53L284.74-16.53Q283.42-16.53 281.63-18.46 279.83-20.39 277.83-20.39L277.83-20.39Q275.41-20.39 273.85-17.38L273.85-17.38Q272.97-15.67 272.95-11.99L272.95-11.99Q272.95-11.94 272.95-11.89L272.95-11.89Q272.95-8.35 274.78-6.05L274.78-6.05Q276.64-3.74 279.49-3.74L279.49-3.74Q281.08-3.74 283.39-4.47 285.69-5.2 286.16-5.2ZM318.45-1.56L318.45-1.56Q318.45-0.42 316.82-0.06 315.18 0.29 312.16 0.29 309.13 0.29 308.22-0.1 307.32-0.49 307.32-1.42L307.32-1.42Q307.32-1.81 307.96-3 308.59-4.2 308.83-5.02 309.08-5.83 309.08-10.94 309.08-16.04 308.22-17.83 307.37-19.63 304.99-19.63 302.61-19.63 301.35-18.03 300.09-16.43 300.09-12.21L300.09-12.21Q300.09-10.82 300.44-7.91 300.78-5 301.41-3.49 302.05-1.98 302.05-1.83L302.05-1.83Q302.05-0.73 300.73-0.44L300.73-0.44Q298.8-0.02 294.91-0.02 291.01-0.02 291.01-1.22L291.01-1.22Q291.01-2.08 292.15-3.66 293.28-5.25 293.44-6.42 293.6-7.59 293.6-18.14 293.6-28.69 293.27-29.98 292.94-31.27 292.21-31.93L292.21-31.93Q290.48-33.5 290.48-33.69L290.48-33.69Q290.48-34.69 291.53-35.13L291.53-35.13Q293.77-36.08 297.48-36.08L297.48-36.08Q299.26-36.08 299.78-34.79L299.78-34.79Q300.09-33.98 300.09-28.53 300.09-23.07 300.19-22.73L300.19-22.73Q300.44-21.88 301.19-21.88L301.19-21.88Q301.51-21.88 302.58-22.36L302.58-22.36Q305.56-23.73 308-23.73L308-23.73Q312.42-23.73 314.25-20.24L314.25-20.24Q315.57-17.72 315.57-11.65 315.57-5.57 315.91-4.76 316.26-3.96 317.36-2.91 318.45-1.86 318.45-1.56ZM363.1-27.61L363.1-27.61Q363.1-25.15 361.66-25.15L361.66-25.15Q361.03-25.15 358.63-27.05 356.24-28.96 354.66-29.7 353.07-30.44 351.02-30.44L351.02-30.44Q350.97-30.44 350.94-30.44L350.94-30.44Q348.97-30.44 347.16-29.39L347.16-29.39Q342.08-26.44 342.08-16.7L342.08-16.7Q342.08-13.92 342.96-11.28L342.96-11.28Q345.52-3.49 352.78-3.49L352.78-3.49Q352.8-3.49 352.82-3.49L352.82-3.49Q356.14-3.49 359.71-5.98L359.71-5.98Q362-7.57 362.35-7.57L362.35-7.57Q363.54-7.57 363.54-6.45L363.54-6.45 363.54-5.83Q363.54-5.27 362.41-3.56 361.27-1.86 359.37-0.98L359.37-0.98Q356.05 0.56 351.55 0.56L351.55 0.56 350.72 0.56Q347.14 0.56 344.13-0.76L344.13-0.76Q338.15-3.39 335.83-9.47L335.83-9.47Q334.59-12.72 334.59-15.8L334.59-15.8 334.59-17.5Q334.59-20.56 335.78-23.73L335.78-23.73Q338.25-30.3 344.23-32.89L344.23-32.89Q347.38-34.25 350.46-34.25L350.46-34.25 351.26-34.25Q358.98-34.25 361.47-32.79L361.47-32.79Q363.1-31.84 363.1-27.61ZM379.26-20.92L379.26-20.92 378.8-20.92Q376.7-20.92 375.37-18.55 374.04-16.19 374.04-12.89L374.04-12.89 374.04-11.52Q374.04-7.81 375.58-5.25 377.11-2.69 379.26-2.69L379.26-2.69 379.73-2.69Q381.61-2.69 383.01-4.6 384.41-6.52 384.41-9.72L384.41-9.72 384.46-10.23 384.49-11.25 384.49-11.52 384.46-11.79 384.46-12.3Q384.41-12.84 384.41-13.09L384.41-13.09Q384.41-16.33 382.88-18.63 381.34-20.92 379.26-20.92ZM379.29-24.17L379.29-24.17 380.51-24.17Q382.68-24.17 384.97-23.14L384.97-23.14Q389.34-21.19 390.98-16.8L390.98-16.8Q391.81-14.53 391.81-12.16L391.81-12.16 391.81-11.72Q391.81-9.18 390.79-6.74 389.76-4.3 388.03-2.69L388.03-2.69Q384.41 0.59 379.73 0.59L379.73 0.59Q379.36 0.59 378.99 0.56L378.99 0.56Q376.65 0.56 374.39-0.38 372.13-1.32 370.69-2.88L370.69-2.88Q367.59-6.3 367.59-11.45L367.59-11.45 367.59-11.87 367.62-12.28Q367.64-14.55 368.47-16.77L368.47-16.77Q370.08-21.02 374.38-23.05L374.38-23.05Q376.8-24.17 379.29-24.17ZM400.38-7.1L400.38-7.1 400.77-7.1Q402.21-7.1 403.42-6.04 404.63-4.98 404.63-3.37L404.63-3.37 404.63-3.13Q404.63-1.66 403.47-0.5 402.31 0.66 400.65 0.66L400.65 0.66 400.38 0.66 400.23 0.63Q398.6 0.63 397.48-0.48 396.37-1.59 396.37-3.05L396.37-3.05 396.37-3.32Q396.37-4.76 397.55-5.93 398.72-7.1 400.38-7.1Z" opacity="1" transform="matrix(1,0,0,1,0,0)" fill="#4b91f1" class="wordmark-text-0" data-fill-palette-color="primary" id="text-0"></path></svg></g></svg></g></svg></g></svg></g><g transform="matrix(1,0,0,1,83.49982669888836,0)"><svg viewBox="0 0 25.000346602223296 24.350986950217496" height="24.350986950217496" width="25.000346602223296"><g><svg xmlns="http://www.w3.org/2000/svg" xmlns:xlink="http://www.w3.org/1999/xlink" version="1.1" x="0" y="0" viewBox="25 31 462 450" style="enable-background:new 0 0 512 512;" xml:space="preserve" height="24.350986950217496" width="25.000346602223296" class="icon-icon-0" data-fill-palette-color="accent" id="icon-0"><g fill="#4b91f1" data-fill-palette-color="accent"><g fill="#4b91f1" data-fill-palette-color="accent"><rect x="202" y="361" width="110" height="40" fill="#4b91f1" data-fill-palette-color="accent"></rect><path d="M72 51.422A5 5 0 0 0 70 51H30A5 5 0 0 0 30 61H70C70.712 61 71.387 60.846 72 60.578V71H112V41H72z" fill="#4b91f1" data-fill-palette-color="accent"></path><rect x="202" y="201" width="110" height="30" fill="#4b91f1" data-fill-palette-color="accent"></rect><rect x="202" y="281" width="110" height="30" fill="#4b91f1" data-fill-palette-color="accent"></rect><path d="M72 131.422A5 5 0 0 0 70 131H30A5 5 0 0 0 30 141H70C70.712 141 71.387 140.846 72 140.578V151H112V121H72z" fill="#4b91f1" data-fill-palette-color="accent"></path><rect x="202" y="111" width="110" height="40" fill="#4b91f1" data-fill-palette-color="accent"></rect><path d="M72 451.422A5 5 0 0 0 70 451H30A5 5 0 1 0 30 461H70C70.712 461 71.387 460.847 72 460.578V471H112V441H72z" fill="#4b91f1" data-fill-palette-color="accent"></path><path d="M442 61H482A5 5 0 1 0 482 51H442V41H402V71H442z" fill="#4b91f1" data-fill-palette-color="accent"></path><path d="M72 291.422A5 5 0 0 0 70 291H30A5 5 0 1 0 30 301H70C70.712 301 71.387 300.847 72 300.578V311H112V281H72z" fill="#4b91f1" data-fill-palette-color="accent"></path><path d="M72 371.422A5 5 0 0 0 70 371H30A5 5 0 1 0 30 381H70C70.712 381 71.387 380.847 72 380.578V391H112V361H72z" fill="#4b91f1" data-fill-palette-color="accent"></path><path d="M72 211.422A5 5 0 0 0 70 211H30A5 5 0 0 0 30 221H70C70.712 221 71.387 220.846 72 220.578V231H112V201H72z" fill="#4b91f1" data-fill-palette-color="accent"></path><path d="M122 36V481H392V31H122zM152 66A5 5 0 0 1 157 61H357A5 5 0 0 1 362 66V446A5 5 0 0 1 357 451H157A5 5 0 0 1 152 446z" fill="#4b91f1" data-fill-palette-color="accent"></path><path d="M352 71H162V441H352zM322 406A5 5 0 0 1 317 411H197A5 5 0 0 1 192 406V356A5 5 0 0 1 197 351H317A5 5 0 0 1 322 356zM322 316A5 5 0 0 1 317 321H197A5 5 0 0 1 192 316V276A5 5 0 0 1 197 271H317A5 5 0 0 1 322 276zM322 236A5 5 0 0 1 317 241H197A5 5 0 0 1 192 236V196A5 5 0 0 1 197 191H317A5 5 0 0 1 322 196zM322 156A5 5 0 0 1 317 161H197A5 5 0 0 1 192 156V106A5 5 0 0 1 197 101H317A5 5 0 0 1 322 106z" fill="#4b91f1" data-fill-palette-color="accent"></path><path d="M482 131H442V121H402V151H442V141H482A5 5 0 1 0 482 131" fill="#4b91f1" data-fill-palette-color="accent"></path><path d="M482 211H442V201H402V231H442V221H482A5 5 0 1 0 482 211" fill="#4b91f1" data-fill-palette-color="accent"></path><path d="M482 291H442V281H402V311H442V301H482C484.762 301 487 298.762 487 296S484.762 291 482 291" fill="#4b91f1" data-fill-palette-color="accent"></path><path d="M482 371H442V361H402V391H442V381H482C484.762 381 487 378.762 487 376S484.762 371 482 371" fill="#4b91f1" data-fill-palette-color="accent"></path><path d="M482 451H442V441H402V471H442V461H482C484.762 461 487 458.762 487 456S484.762 451 482 451" fill="#4b91f1" data-fill-palette-color="accent"></path></g></g></svg></g></svg></g><g></g></svg></g></svg></g></svg></g></svg></g><defs></defs></svg><rect width="320" height="360" fill="none" stroke="none" visibility="hidden"></rect></g></svg></g></svg>